<svg xmlns="http://www.w3.org/2000/svg" aria-hidden="true" style="position:absolute;width:0;height:0;overflow:hidden">
  <defs>
    <symbol id="icon-base" viewBox="0 0 32 32">
      <path d="M13.2 26.053a2.305 2.305 0 0 1-2.293 2.307 2.308 2.308 0 0 1 0-4.614 2.296 2.296 0 0 1 2.293 2.307zM27.027 26.053a2.316 2.316 0 0 1-2.307 2.307 2.308 2.308 0 1 1 2.307-2.307z"/>
      <path fill="none" stroke="#000" stroke-linecap="round" stroke-linejoin="round" stroke-width="2.667" d="M4 5.333h3.067l.92 4.6 2.147 10.747h15.347l3.08-10.747H7.988" style="stroke:var(--color1, #000)"/>
    </symbol>
    <symbol id="icon-heart" viewBox="0 0 32 32">
      <path stroke-linejoin="round" stroke-width="2.667" d="M14.987 9.333C13.814 7.786 12.08 6.666 10 6.666c-3.32 0-6 2.68-6 6 0 1.24.373 2.387 1.013 3.333 1.08 1.613 10.987 12 10.987 12s9.907-10.387 10.987-12A5.927 5.927 0 0 0 28 12.666c0-3.32-2.68-6-6-6-2.08 0-3.813 1.12-4.987 2.667L16 10.666l-1.013-1.333z"/>
    </symbol>
    <symbol id="icon-search" viewBox="0 0 32 32">
      <path d="m26.133 28-8.4-8.4c-.667.533-1.44.947-2.307 1.267a8.21 8.21 0 0 1-2.76.467c-2.427 0-4.48-.84-6.16-2.52-1.667-1.68-2.507-3.733-2.507-6.147-.013-2.427.827-4.48 2.507-6.16S10.239 4 12.666 4c2.413 0 4.467.827 6.147 2.507s2.52 3.733 2.52 6.16a8.21 8.21 0 0 1-.467 2.76c-.32.867-.733 1.64-1.267 2.307l8.4 8.4-1.867 1.867zm-13.466-9.333c1.667 0 3.08-.587 4.24-1.76 1.173-1.16 1.76-2.573 1.76-4.24-.013-1.68-.587-3.093-1.76-4.253-1.16-1.173-2.573-1.747-4.24-1.747-1.68-.013-3.093.573-4.253 1.747-1.173 1.16-1.747 2.587-1.747 4.253-.013 1.653.573 3.08 1.747 4.24 1.173 1.173 2.587 1.76 4.253 1.76z"/>
    </symbol>
  </defs>
</svg>
